<?xml version="1.0" encoding="iso-8859-1"?>
<!-- Uploaded to: SVG Repo, www.svgrepo.com, Generator: SVG Repo Mixer Tools -->
<svg version="1.1" id="Layer_1" xmlns="http://www.w3.org/2000/svg" xmlns:xlink="http://www.w3.org/1999/xlink" 
	 viewBox="0 0 512.001 512.001" xml:space="preserve">
<g>
	<rect x="14.043" y="83.686" style="fill:#EFEFEF;" width="485.025" height="345.497"/>
	<polygon style="fill:#EFEFEF;" points="14.043,428.749 256.555,222.779 499.068,428.749 	"/>
	<polygon style="fill:#EFEFEF;" points="499.068,83.252 256.555,289.221 14.043,83.252 	"/>
</g>
<path d="M511.512,78.67c-1.922-5.23-6.871-8.707-12.443-8.707H14.044c-5.572,0-10.552,3.476-12.474,8.707
	c-0.586,1.595-1.223,3.249-1.185,4.881C0.384,83.596,0,83.64,0,83.685v345.497c0,7.338,6.704,12.855,14.043,12.855h485.025
	c7.338,0,12.534-5.516,12.534-12.855V83.685c0-0.044,0.372-0.086,0.371-0.132C512.011,81.922,512.098,80.266,511.512,78.67z
	 M462.385,96.54l-205.83,174.814L50.727,96.54H462.385z M26.577,111.972L196.159,256L26.577,400.029V111.972z M50.217,415.46
	l167.225-142.026l30.513,25.915c2.481,2.106,5.541,3.16,8.603,3.16c3.062,0,6.121-1.054,8.603-3.16l30.513-25.915L462.897,415.46
	H50.217z M485.025,400.029L315.444,256l169.581-144.028V400.029z"/>
</svg>